:SAMPLES-PER-SECOND 24
:FULLY-SPECIFIED
:DEGREES
791
root  -5.18064 35.64 33.6673 4.55392 -58.3263 -9.44492
RightUpLeg  6.87311 -7.60858 -23.998
RightLeg  27.0002 12.4574 6.61611
RightFoot  -16.4 0.720715 18.6439
RightToes  -1.46215e-006 3.27826e-006 1.63871e-007
Spine  3.84559 -2.08395 0.44662
Spine1  12.3213 -3.97742 2.88947
HEad  -23.5764 50.7986 -34.2739
LeftShoulder1  1.71703 -2.53726 -22.0929
LeftArm  -6.27026 -48.5975 -21.939
LeftForeArm  130.87 -64.5285 -155.327
LeftHand  -0.189146 4.31607 18.7582
RightShoulder  3.51656 6.08372 30.7819
RightArm  18.3642 -35.7751 17.4135
RightForeArm  63.8885 78.873 66.484
RightHand  0.170587 -0.429386 4.14356
LeftUpLeg  -33.1618 3.16716 17.9653
LeftLeg  39.8334 -11.3167 -9.57736
LeftFoot  -3.31255 1.17401 -16.358
LeftToes  1.24762e-006 1.46925e-008 1.29056e-009
792
root  -5.32481 35.5483 33.2039 5.01028 -55.7986 -9.45612
RightUpLeg  9.90826 -10.1549 -23.3867
RightLeg  23.0029 13.2917 5.91606
RightFoot  -19.5868 1.15198 17.7074
RightToes  -1.46215e-006 3.27826e-006 1.63871e-007
Spine  3.83266 -1.32139 1.9949
Spine1  12.3576 -2.3662 0.721225
HEad  -22.3966 48.5268 -33.099
LeftShoulder1  1.54451 -2.0791 -21.2816
LeftArm  -28.0838 -33.7283 -1.65747
LeftForeArm  130.228 -67.4442 -151.806
LeftHand  -0.0305155 5.22093 5.01515
RightShoulder  3.5738 6.11081 31.28
RightArm  17.3208 -34.9523 19.2428
RightForeArm  59.4017 78.8225 75.7536
RightHand  0.09107 -0.401718 2.18737
LeftUpLeg  -34.4925 2.25015 18.7628
LeftLeg  38.8064 -11.1652 -9.11331
LeftFoot  -3.36739 1.2934 -18.1385
LeftToes  1.24762e-006 1.46925e-008 1.29056e-009
793
root  -5.3995 35.5318 32.5962 6.67542 -57.9509 -10.0542
RightUpLeg  8.07922 -13.5769 -23.316
RightLeg  22.8949 14.9956 6.65155
RightFoot  -21.8999 1.32085 15.8103
RightToes  -1.46215e-006 3.27826e-006 1.63871e-007
Spine  3.16496 0.0471321 4.11985
Spine1  12.0479 -0.0744707 -1.48826
HEad  -21.5253 48.45 -34.0561
LeftShoulder1  0.982061 -0.624154 -17.0541
LeftArm  -37.0637 -21.4353 6.23233
LeftForeArm  51.6396 -74.6431 -56.3525
LeftHand  -0.499681 -4.46402 5.05579
RightShoulder  3.65034 6.19891 31.7355
RightArm  16.8043 -34.9389 20.6003
RightForeArm  58.3634 78.4669 91.9136
RightHand  0.057568 -1.5087 2.00603
LeftUpLeg  -34.4905 2.96261 20.5254
LeftLeg  37.2667 -10.1539 -7.8273
LeftFoot  -3.08368 1.46034 -19.8034
LeftToes  1.24762e-006 1.46925e-008 1.29056e-009
794
root  -5.37894 35.5282 31.8448 6.5354 -60.9905 -9.94155
RightUpLeg  4.59868 -12.6771 -22.8747
RightLeg  26.5296 15.4957 8.05734
RightFoot  -23.5391 1.46515 15.1292
RightToes  -1.46215e-006 3.27826e-006 1.63871e-007
Spine  4.39478 0.837324 4.69634
Spine1  10.4765 1.02732 -2.0275
HEad  -19.8029 49.8937 -35.8211
LeftShoulder1  0.556616 0.752437 -13.2586
LeftArm  -37.0454 -22.9298 9.9088
LeftForeArm  12.7975 -26.8641 -6.10787
LeftHand  -1.13504 -3.78373 15.3028
RightShoulder  3.71744 6.34677 31.852
RightArm  17.1612 -36.8347 21.0302
RightForeArm  49.4958 77.4797 103.955
RightHand  0.0948346 -2.36774 4.4232
LeftUpLeg  -32.4919 2.70051 21.9608
LeftLeg  34.951 -8.82905 -6.22142
LeftFoot  -2.33504 1.55566 -19.4318
LeftToes  1.24762e-006 1.46925e-008 1.29056e-009
795
root  -5.30484 35.5884 31.1472 4.42371 -61.6268 -9.00564
RightUpLeg  3.61821 -12.0485 -22.7259
RightLeg  29.646 15.3628 9.05995
RightFoot  -23.8311 1.45012 14.6657
RightToes  -1.46215e-006 3.27826e-006 1.63871e-007
Spine  6.42517 0.330629 4.30831
Spine1  9.90601 0.457171 -1.65151
HEad  -19.3182 50.7827 -37.8282
LeftShoulder1  0.388055 1.49183 -12.1732
LeftArm  -38.4483 -26.593 14.0689
LeftForeArm  7.44822 -0.966972 -7.77922
LeftHand  -0.703336 0.087541 15.3406
RightShoulder  3.80992 6.48918 32.2405
RightArm  18.6058 -40.1453 19.5717
RightForeArm  39.4944 76.6779 110.887
RightHand  0.044473 -3.95256 5.4973
LeftUpLeg  -30.0004 0.413419 22.6601
LeftLeg  31.5562 -6.73163 -4.09912
LeftFoot  -0.017756 1.90211 -19.0358
LeftToes  1.24762e-006 1.46925e-008 1.29056e-009
796
root  -5.23893 35.7677 30.5909 2.6756 -60.5067 -7.81615
RightUpLeg  4.12071 -13.2675 -22.5916
RightLeg  30.0582 14.7751 8.85785
RightFoot  -23.237 1.30738 14.0065
RightToes  -1.46215e-006 3.27826e-006 1.63871e-007
Spine  6.40432 -0.650952 5.26281
Spine1  11.6515 -0.0936117 -2.9615
HEad  -18.8633 50.6955 -38.3384
LeftShoulder1  0.280043 2.03581 -11.9193
LeftArm  -38.2275 -26.3746 15.5083
LeftForeArm  2.20366 -4.45841 -9.04839
LeftHand  -0.949296 -2.27567 14.5455
RightShoulder  3.89022 6.56126 32.7667
RightArm  21.4427 -43.1406 17.7996
RightForeArm  36.3836 76.373 113.522
RightHand  -0.00432599 -4.33383 2.32932
LeftUpLeg  -28.3259 -1.15915 22.6075
LeftLeg  27.4439 -6.39177 -3.24997
LeftFoot  3.09975 2.45823 -19.3912
LeftToes  1.24762e-006 1.46925e-008 1.29056e-009
797
root  -5.17089 36.037 30.07 1.11475 -59.0978 -5.62456
RightUpLeg  3.8706 -14.1414 -22.6068
RightLeg  29.6604 13.3397 7.87742
RightFoot  -22.5283 1.21698 13.933
RightToes  -1.46215e-006 3.27826e-006 1.63871e-007
Spine  5.45036 -1.48155 5.64098
Spine1  12.9912 -0.55885 -4.15051
HEad  -17.4255 50.5141 -37.4713
LeftShoulder1  0.26616 2.0961 -11.7303
LeftArm  -38.8207 -27.2504 15.2884
LeftForeArm  1.60133 -6.84436 -9.25511
LeftHand  -0.724451 -0.808865 13.7187
RightShoulder  3.89381 6.59407 32.6762
RightArm  24.4276 -44.3853 17.0855
RightForeArm  34.5069 76.6431 110.701
RightHand  -0.0249067 -4.74877 0.206499
LeftUpLeg  -27.0071 -0.00249195 21.1191
LeftLeg  22.3734 -7.61026 -3.10617
LeftFoot  6.04557 2.56613 -16.9488
LeftToes  1.24762e-006 1.46925e-008 1.29056e-009
798
root  -5.06549 36.3224 29.6404 -0.443176 -58.0753 -2.96612
RightUpLeg  3.12009 -14.9489 -23.1775
RightLeg  29.3398 12.886 7.51306
RightFoot  -21.7505 1.17026 14.4072
RightToes  -1.46215e-006 3.27826e-006 1.63871e-007
Spine  5.61333 -2.17524 3.711
Spine1  12.6663 -1.6751 -3.01519
HEad  -18.5243 50.0467 -37.6049
LeftShoulder1  0.327956 1.80437 -12.1584
LeftArm  -39.1499 -27.8806 15.445
LeftForeArm  -0.0110333 -2.65756 -8.95841
LeftHand  -0.635079 0.213546 14.2706
RightShoulder  3.87534 6.61585 32.4097
RightArm  25.433 -43.8594 16.9908
RightForeArm  31.0835 76.9221 107.155
RightHand  -0.0288631 -5.39133 0.062072
LeftUpLeg  -25.6068 4.59071 18.3911
LeftLeg  16.4864 -5.28612 -1.29662
LeftFoot  9.77267 1.9973 -11.0859
LeftToes  1.24762e-006 1.46925e-008 1.29056e-009
799
root  -4.94595 36.5467 29.4693 -1.08054 -57.4727 -1.34691
RightUpLeg  2.80588 -16.3361 -23.8676
RightLeg  28.2659 13.4826 7.52926
RightFoot  -20.5977 1.09411 15.1733
RightToes  -1.46215e-006 3.27826e-006 1.63871e-007
Spine  6.12202 -2.65171 1.51655
Spine1  12.4148 -2.77134 -1.16493
HEad  -22.3364 49.0206 -38.2304
LeftShoulder1  0.344392 1.7408 -12.4309
LeftArm  -39.1094 -26.7025 15.1699
LeftForeArm  -2.38401 -3.05049 -8.92566
LeftHand  -0.75393 -0.930335 13.9828
RightShoulder  3.87942 6.60933 32.4751
RightArm  24.9329 -43.2339 17.3549
RightForeArm  31.773 76.8318 108.34
RightHand  -0.0316248 -5.08055 -1.57353
LeftUpLeg  -24.8779 11.2848 16.3436
LeftLeg  13.866 0.810831 0.205229
LeftFoot  12.7901 1.40386 -6.92517
LeftToes  1.24762e-006 1.46925e-008 1.29056e-009
800
root  -4.85553 36.6955 29.5374 -0.905579 -56.6182 -0.900707
RightUpLeg  3.05476 -17.5013 -24.2503
RightLeg  26.9396 13.0312 6.89163
RightFoot  -19.3048 0.961531 15.6168
RightToes  -1.46215e-006 3.27826e-006 1.63871e-007
Spine  6.18175 -3.13023 -0.352861
Spine1  12.7121 -3.77629 0.409788
HEad  -25.1633 48.5234 -37.7744
LeftShoulder1  0.313614 1.85684 -11.8829
LeftArm  -40.4992 -27.0442 14.6349
LeftForeArm  -3.69731 -2.49672 -8.56128
LeftHand  -0.706468 -0.731197 13.5119
RightShoulder  3.87308 6.60021 32.4469
RightArm  25.0619 -43.1708 17.7997
RightForeArm  35.5085 76.5863 111.39
RightHand  -0.0405347 -4.71797 -2.99018
LeftUpLeg  -25.4014 18.7646 14.9195
LeftLeg  17.8805 0.73451 0.532984
LeftFoot  12.4781 1.97392 -9.70572
LeftToes  1.24762e-006 1.46925e-008 1.29056e-009
